<svg id="レイヤー_1" data-name="レイヤー 1" xmlns="http://www.w3.org/2000/svg" viewBox="0 0 170.07861 170.0786"><defs><style>.cls-1{fill:#f0fff0;}</style></defs><title>snow4</title><rect class="cls-1" x="662.01008" y="355.04162" width="51.93033" height="6.43376" transform="translate(-382.25118 674.12225) rotate(-80.00146)"/><polygon class="cls-1" points="91.082 33.66 96.652 36.884 111.431 4.021 91.082 33.66"/><polygon class="cls-1" points="97.605 34.81 91.27 35.936 88.618 0 97.605 34.81"/><polygon class="cls-1" points="93.635 40.845 89.923 46.103 62.758 22.431 93.635 40.845"/><polygon class="cls-1" points="88.945 57.328 88.409 63.74 52.999 57.082 88.945 57.328"/><polygon class="cls-1" points="92.751 40.691 94.44 46.9 128.062 33.941 92.751 40.691"/><polygon class="cls-1" points="91.52 57.781 89.831 63.991 125.387 69.843 91.52 57.781"/><rect class="cls-1" x="664.74545" y="336.46151" width="6.43374" height="51.93037" transform="matrix(0.81908, -0.57368, 0.57368, 0.81908, -685.02999, 149.30279)"/><polygon class="cls-1" points="52.981 44.435 59.2 42.777 46.413 9.088 52.981 44.435"/><polygon class="cls-1" points="58.407 40.635 54.723 45.912 27.438 22.376 58.407 40.635"/><polygon class="cls-1" points="59.868 47.71 60.959 54.053 25.013 56.524 59.868 47.71"/><polygon class="cls-1" points="68.205 62.682 72.361 67.596 42.614 87.926 68.205 62.682"/><polygon class="cls-1" points="59.133 48.226 64.718 51.423 79.329 18.485 59.133 48.226"/><polygon class="cls-1" points="70.347 61.181 73.544 66.767 102.825 45.764 70.347 61.181"/><rect class="cls-1" x="653.54158" y="353.55958" width="6.43303" height="51.9306" transform="translate(-428.9629 660.97743) rotate(-80.0043)"/><polygon class="cls-1" points="33.66 78.997 36.884 73.426 4.021 58.647 33.66 78.997"/><polygon class="cls-1" points="34.809 72.473 35.935 78.809 0 81.46 34.809 72.473"/><polygon class="cls-1" points="40.845 76.442 46.101 80.156 22.431 107.32 40.845 76.442"/><polygon class="cls-1" points="57.327 81.133 63.74 81.669 57.082 117.081 57.327 81.133"/><polygon class="cls-1" points="40.69 77.327 46.899 75.638 33.94 42.015 40.69 77.327"/><polygon class="cls-1" points="57.781 78.558 63.991 80.247 69.844 44.692 57.781 78.558"/><rect class="cls-1" x="634.96099" y="396.32132" width="51.9301" height="6.43296" transform="translate(-707.59471 151.95089) rotate(-35.00479)"/><polygon class="cls-1" points="44.436 117.097 42.777 110.878 9.088 123.666 44.436 117.097"/><polygon class="cls-1" points="40.635 111.672 45.912 115.355 22.377 142.641 40.635 111.672"/><polygon class="cls-1" points="47.709 110.209 54.052 109.12 56.523 145.065 47.709 110.209"/><polygon class="cls-1" points="62.681 101.872 67.595 97.717 87.926 127.465 62.681 101.872"/><polygon class="cls-1" points="48.226 110.946 51.422 105.361 18.484 90.75 48.226 110.946"/><polygon class="cls-1" points="61.182 99.73 66.767 96.534 45.764 67.252 61.182 99.73"/><rect class="cls-1" x="652.05946" y="407.52563" width="51.93002" height="6.43253" transform="translate(-441.986 707.84647) rotate(-80.01823)"/><polygon class="cls-1" points="78.997 136.419 73.427 133.194 58.647 166.058 78.997 136.419"/><polygon class="cls-1" points="72.473 135.271 78.808 134.143 81.461 170.079 72.473 135.271"/><polygon class="cls-1" points="76.441 129.233 80.155 123.977 107.32 147.648 76.441 129.233"/><polygon class="cls-1" points="81.132 112.751 81.669 106.338 117.08 112.997 81.132 112.751"/><polygon class="cls-1" points="77.327 129.388 75.638 123.18 42.016 136.139 77.327 129.388"/><polygon class="cls-1" points="78.557 112.296 80.247 106.087 44.689 100.234 78.557 112.296"/><rect class="cls-1" x="694.8217" y="380.60918" width="6.43233" height="51.92958" transform="translate(-704.906 174.65112) rotate(-35.01464)"/><polygon class="cls-1" points="117.098 125.643 110.878 127.301 123.666 160.99 117.098 125.643"/><polygon class="cls-1" points="111.672 129.444 115.354 124.167 142.641 147.701 111.672 129.444"/><polygon class="cls-1" points="110.209 122.369 109.119 116.026 145.066 113.555 110.209 122.369"/><polygon class="cls-1" points="101.872 107.398 97.717 102.483 127.465 82.153 101.872 107.398"/><polygon class="cls-1" points="110.946 121.853 105.361 118.656 90.749 151.594 110.946 121.853"/><polygon class="cls-1" points="99.729 108.896 96.533 103.312 67.252 124.316 99.729 108.896"/><rect class="cls-1" x="706.02543" y="363.51035" width="6.43262" height="51.92985" transform="matrix(0.1734, -0.98485, 0.98485, 0.1734, -395.27484, 720.97889)"/><polygon class="cls-1" points="136.418 91.083 133.193 96.653 166.058 111.431 136.418 91.083"/><polygon class="cls-1" points="135.27 97.605 134.142 91.271 170.079 88.618 135.27 97.605"/><polygon class="cls-1" points="129.232 93.637 123.976 89.923 147.648 62.758 129.232 93.637"/><polygon class="cls-1" points="112.751 88.946 106.338 88.41 112.998 52.997 112.751 88.946"/><polygon class="cls-1" points="129.389 92.752 123.18 94.44 136.138 128.064 129.389 92.752"/><polygon class="cls-1" points="112.295 91.521 106.087 89.833 100.235 125.389 112.295 91.521"/><rect class="cls-1" x="679.1086" y="366.24643" width="51.93004" height="6.43238" transform="translate(-682.33276 172.01642) rotate(-35.01792)"/><polygon class="cls-1" points="125.643 52.982 127.301 59.202 160.99 46.413 125.643 52.982"/><polygon class="cls-1" points="129.444 58.406 124.167 54.725 147.702 27.437 129.444 58.406"/><polygon class="cls-1" points="122.369 59.87 116.025 60.959 113.555 25.013 122.369 59.87"/><polygon class="cls-1" points="107.397 68.206 102.483 72.362 82.152 42.613 107.397 68.206"/><polygon class="cls-1" points="121.853 59.133 118.656 64.716 151.594 79.329 121.853 59.133"/><polygon class="cls-1" points="108.895 70.349 103.312 73.544 124.316 102.827 108.895 70.349"/><polygon class="cls-1" points="87.892 62.429 92.888 41.437 90.598 62.895 86.662 85.804 85.172 86.353 83.955 85.338 87.892 62.429"/><polygon class="cls-1" points="71.068 67.035 59.757 48.658 73.311 65.451 86.727 84.433 86.063 85.873 84.484 86.018 71.068 67.035"/><polygon class="cls-1" points="62.429 82.187 41.436 77.191 62.895 79.481 85.804 83.416 86.353 84.906 85.339 86.123 62.429 82.187"/><polygon class="cls-1" points="67.034 99.01 48.658 110.322 65.451 96.768 84.432 83.35 85.874 84.016 86.017 85.594 67.034 99.01"/><polygon class="cls-1" points="82.186 107.65 77.191 128.642 79.481 107.183 83.416 84.273 84.906 83.726 86.123 84.74 82.186 107.65"/><polygon class="cls-1" points="99.01 103.044 110.322 121.421 96.767 104.626 83.349 85.646 84.017 84.206 85.593 84.061 99.01 103.044"/><polygon class="cls-1" points="107.649 87.892 128.643 92.888 107.182 90.597 84.273 86.663 83.727 85.172 84.739 83.956 107.649 87.892"/><polygon class="cls-1" points="103.045 71.068 121.421 59.757 104.625 73.312 85.646 86.729 84.206 86.062 84.061 84.485 103.045 71.068"/></svg>